<?xml version="1.0" encoding="UTF-8"?>
<svg version="1.1" viewBox="0 0 400 400" xmlns="http://www.w3.org/2000/svg">
<g fill-rule="evenodd">
<path d="m283.5 17.988c-5.446 1.44-23.641 8.715-31.8 12.714-22.129 10.848-36.839 21.681-44.114 32.489-2.808 4.172-4.029 5.175-8.755 7.188-14.697 6.262-27.74 13.308-35.95 19.421-13.413 9.988-38.648 35.521-53.624 54.256-9.439 11.808-14.344 24.389-20.058 51.444-3.922 18.567-5.458 23.9-6.883 23.9-2.769 0-3.499-13.283-1.406-25.568 1.019-5.982 2.619-11.734 6.081-21.857 3.778-11.052 1.603-9.458-12.589 9.225-3.629 4.777-5.163 6.735-9.415 12.017-6.814 8.465-10.141 19.87-10.788 36.983-0.33 8.711-0.859 9.495-5.434 8.045-7.662-2.427-11.19-0.558-6.586 3.49 4.451 3.914 6.041 7.09 6.095 12.181 0.045 4.225-0.933 4.777-3.882 2.188-3.6-3.16-8.003-3.825-11.98-1.81-2.531 1.283-2.254 2.62 1.043 5.029 5.767 4.214 7.596 7.15 8.643 13.877 1.171 7.525 4.45 12.355 10.798 15.905 2.843 1.59 2.988 2.841 0.742 6.392-3.747 5.923-17.178 31.524-22.089 42.103-6.374 13.73-13.754 32.924-16.061 41.772-0.844 3.239-0.345 4.561 1.52 4.026 1.004-0.288 1.085-0.353 8.665-6.986 3.891-3.404 4.962-4.962 7.043-10.241 7.884-19.997 18.316-40.306 34.557-67.271 7.11-11.806 5.746-11.532 20.527-4.123 8.498 4.26 11.228 5.453 14.188 6.198 5.102 1.285 5.677-0.323 1.444-4.037-4.493-3.943-6.531-6.684-6.011-8.09 0.283-0.765 1.524-0.593 5.353 0.743 6.676 2.33 11.385 3.181 18.526 3.351 12.214 0.291 18.414-1.872 13.7-4.777-0.275-0.17-2.669-1.173-5.32-2.229-18.709-7.455-32.08-14.766-32.08-17.542 0-1.249 1.018-1.248 6.5 4e-3 19.255 4.4 41.45 5.073 58.5 1.774 9.4-1.818 15.41-3.828 33.9-11.333 10.093-4.097 11.917-4.698 22.3-7.348 17.798-4.542 17.5-4.449 17.879-5.527 0.975-2.773-8.322-5.627-20.079-6.164-15.618-0.714-19.956-1.535-17.955-3.399 0.828-0.771 2.951-1.602 11.25-4.402 27.811-9.382 43.79-17.074 58.287-28.058 3.513-2.661 5.179-3.552 10.118-5.408 8.259-3.103 19.416-8.777 26.873-13.666 8.399-5.507 14.023-10.337 30.227-25.959 5.017-4.837 6.24-5.762 9.15-6.919 13.667-5.433 24.71-17.545 35.332-38.752 7.684-15.34 14.633-39.211 13.025-44.741-0.847-2.914-4.711-7.205-16.207-17.999-15.153-14.227-21.312-17.996-36.1-22.093-9.066-2.511-36.782-6.438-41.715-5.91-9.751 1.044-24.763 16.901-35.965 37.987-2.707 5.096-3.551 6.438-4.172 6.635-2.11 0.67-0.238-7.5 3.44-15.016 2.947-6.021 6.183-10.447 17.304-23.665 6.18-7.346 6.902-8.309 7.049-9.405 0.172-1.28-0.836-1.625-3.041-1.042" fill="#fbfbfb"/>
<path d="m0 200v200h200 200v-200-200h-200-200v200m286.37-181.94c0.971 0.784 0.169 1.993-6.879 10.37-11.121 13.218-14.357 17.644-17.304 23.665-3.678 7.516-5.55 15.686-3.44 15.016 0.621-0.197 1.465-1.539 4.172-6.635 11.202-21.086 26.214-36.943 35.965-37.987 4.933-0.528 32.649 3.399 41.715 5.91 14.788 4.097 20.947 7.866 36.1 22.093 11.496 10.794 15.36 15.085 16.207 17.999 1.608 5.53-5.341 29.401-13.025 44.741-10.622 21.207-21.665 33.319-35.332 38.752-2.91 1.157-4.133 2.082-9.15 6.919-16.204 15.622-21.828 20.452-30.227 25.959-7.457 4.889-18.614 10.563-26.873 13.666-4.939 1.856-6.605 2.747-10.118 5.408-14.497 10.984-30.476 18.676-58.287 28.058-17.082 5.763-16.232 6.752 6.705 7.801 11.757 0.537 21.054 3.391 20.079 6.164-0.379 1.078-0.081 0.985-17.879 5.527-10.383 2.65-12.207 3.251-22.3 7.348-18.49 7.505-24.5 9.515-33.9 11.333-17.05 3.299-39.245 2.626-58.5-1.774-5.482-1.252-6.5-1.253-6.5-4e-3 0 2.776 13.371 10.087 32.08 17.542 2.651 1.056 5.045 2.059 5.32 2.229 4.714 2.905-1.486 5.068-13.7 4.777-7.141-0.17-11.85-1.021-18.526-3.351-3.829-1.336-5.07-1.508-5.353-0.743-0.52 1.406 1.518 4.147 6.011 8.09 4.233 3.714 3.658 5.322-1.444 4.037-2.96-0.745-5.69-1.938-14.188-6.198-14.781-7.409-13.417-7.683-20.527 4.123-16.241 26.965-26.673 47.274-34.557 67.271-2.081 5.279-3.152 6.837-7.043 10.241-7.58 6.633-7.661 6.698-8.665 6.986-1.865 0.535-2.364-0.787-1.52-4.026 2.307-8.848 9.687-28.042 16.061-41.772 4.911-10.579 18.342-36.18 22.089-42.103 2.246-3.551 2.101-4.802-0.742-6.392-6.348-3.55-9.627-8.38-10.798-15.905-1.047-6.727-2.876-9.663-8.643-13.877-3.297-2.409-3.574-3.746-1.043-5.029 3.977-2.015 8.38-1.35 11.98 1.81 2.949 2.589 3.927 2.037 3.882-2.188-0.054-5.091-1.644-8.267-6.095-12.181-4.604-4.048-1.076-5.917 6.586-3.49 4.575 1.45 5.104 0.666 5.434-8.045 0.647-17.113 3.974-28.518 10.788-36.983 4.252-5.282 5.786-7.24 9.415-12.017 14.192-18.683 16.367-20.277 12.589-9.225-3.462 10.123-5.062 15.875-6.081 21.857-2.093 12.285-1.363 25.568 1.406 25.568 1.425 0 2.961-5.333 6.883-23.9 5.714-27.055 10.619-39.636 20.058-51.444 14.976-18.735 40.211-44.268 53.624-54.256 8.21-6.113 21.253-13.159 35.95-19.421 4.726-2.013 5.947-3.016 8.755-7.188 5.895-8.758 12.521-14.35 28.014-23.644 13.347-8.007 21.837-12.028 38.342-18.159 10.306-3.828 11.431-4.129 12.429-3.323" fill="#fb7c6c"/>
</g>
</svg>
