<svg xmlns="http://www.w3.org/2000/svg" viewBox="0 0 400 400" fill-rule="evenodd" xmlns:v="https://vecta.io/nano"><path d="M283.5 18c-5.4 1.4-23.6 8.7-31.8 12.7-22 10.8-36.8 21.7-44 32.5-2.8 4.2-4 5.2-8.8 7.2a187 187 0 0 0-36 19.4 384 384 0 0 0-53.6 54.3c-9.4 11.8-14.3 24.4-20 51.4-4 18.6-5.5 24-7 24-2.8 0-3.5-13.3-1.4-25.6A135 135 0 0 1 87 172c3.8-11 1.6-9.5-12.6 9.2l-9.4 12c-6.8 8.5-10 20-10.8 37-.3 8.7-1 9.5-5.4 8-7.7-2.4-11.2-.6-6.6 3.5 4.5 4 6 7 6 12.2 0 4.2-1 4.8-4 2.2-3.6-3.2-8-3.8-12-1.8-2.5 1.3-2.3 2.6 1 5 5.8 4.2 7.6 7 8.6 14 1.2 7.5 4.5 12.4 10.8 16 2.8 1.6 3 2.8.7 6.4l-22 42c-6.4 13.7-13.8 33-16 41.8-.8 3.2-.3 4.6 1.5 4 1-.3 1-.4 8.7-7 4-3.4 5-5 7-10.2a445 445 0 0 1 34.6-67.3c7-11.8 5.7-11.5 20.5-4A72 72 0 0 0 102 301c5 1.3 5.7-.3 1.4-4-4.5-4-6.5-6.7-6-8 .3-.8 1.5-.6 5.4.7a54 54 0 0 0 18.5 3.4c12.2.3 18.4-2 13.7-4.8a98 98 0 0 0-5.3-2.2c-18.7-7.5-32-14.8-32-17.5 0-1.2 1-1.2 6.5 0a151 151 0 0 0 58.5 1.8 162 162 0 0 0 33.9-11.3c10-4 12-4.7 22.3-7.3 17.8-4.5 17.5-4.4 18-5.5 1-2.8-8.3-5.6-20-6.2-15.6-.7-20-1.5-18-3.4.8-.8 3-1.6 11.3-4.4 27.8-9.4 43.8-17 58.3-28a32 32 0 0 1 10.1-5.4c8.3-3 19.4-8.8 27-13.7 8.4-5.5 14-10.3 30.2-26 5-4.8 6.2-5.8 9-7 13.7-5.4 24.7-17.5 35.3-38.8 7.7-15.3 14.6-39.2 13-44.7-.8-3-4.7-7.2-16.2-18-15.2-14.2-21.3-18-36-22-9-2.5-36.8-6.4-41.7-6-9.8 1-24.8 17-36 38l-4.2 6.6c-2 .7-.2-7.5 3.4-15 3-6 6.2-10.4 17.3-23.7l7-9.4c.2-1.3-.8-1.6-3-1" fill="#fbfbfb"/><path d="M0 200v200h200 200V200 0H200 0v200M286.4 18c1 .8.2 2-7 10.4C268.4 41.6 265 46 262.2 52c-3.7 7.5-5.6 15.7-3.4 15 .6-.2 1.5-1.5 4.2-6.6 11.2-21 26.2-37 36-38 5-.5 32.6 3.4 41.7 6 14.8 4 21 8 36 22l16.2 18c1.6 5.5-5.3 29.4-13 44.7-10.6 21.2-21.7 33.3-35.3 38.8-3 1.2-4 2-9 7l-30.2 26c-7.5 5-18.6 10.6-27 13.7a32 32 0 0 0-10.1 5.4c-14.5 11-30.5 18.7-58.3 28-17 5.8-16.2 6.8 6.7 7.8 11.8.5 21 3.4 20 6.2-.4 1-.1 1-18 5.5-10.4 2.7-12.2 3.3-22.3 7.3l-34 11.3a151 151 0 0 1-58.5-1.8c-5.5-1.3-6.5-1.3-6.5 0 0 2.8 13.4 10 32 17.5l5.3 2.2c4.7 3-1.5 5-13.7 4.8a54 54 0 0 1-18.5-3.4c-3.8-1.3-5-1.5-5.4-.7-.5 1.4 1.5 4 6 8 4.2 3.7 3.7 5.3-1.4 4a72 72 0 0 1-14.2-6.2c-14.8-7.4-13.4-7.7-20.5 4a445 445 0 0 0-34.6 67.3c-2 5.3-3.2 6.8-7 10.2-7.6 6.6-7.7 6.7-8.7 7-2 .5-2.4-.8-1.5-4 2.3-8.8 9.7-28 16-41.8l22-42c2.2-3.6 2-4.8-.7-6.4-6.3-3.6-9.6-8.4-10.8-16-1-6.7-3-9.7-8.6-14-3.3-2.4-3.6-3.7-1-5 4-2 8.4-1.3 12 1.8 3 2.6 4 2 4-2.2-.1-5-1.6-8.3-6-12.2-4.6-4-1-6 6.6-3.5 4.6 1.4 5 .7 5.4-8 .6-17 4-28.5 10.8-37l9.4-12C88.6 162.5 90.8 161 87 172a135 135 0 0 0-6.1 21.9c-2 12.3-1.4 25.6 1.4 25.6 1.4 0 3-5.3 7-24 5.7-27 10.6-39.6 20-51.4a384 384 0 0 1 53.6-54.3 187 187 0 0 1 35.9-19.4c4.7-2 6-3 8.8-7.2 6-8.8 12.5-14.3 28-23.6a197 197 0 0 1 38.3-18.2c10.3-3.8 11.4-4 12.4-3.3" fill="#fb7c6c"/></svg>